<svg fill="none" height="64" viewBox="0 0 64 64" width="64" xmlns="http://www.w3.org/2000/svg"><path clip-rule="evenodd" d="m16.7276 4.30897c-.5179.18558-1.1981.57751-1.5112.87078-1.7468 1.63607-2.2749 5.93625-1.374 11.18905.2842 1.6566.5666 3.0924.6276 3.1908s1.0355-.0078 2.1655-.2359c1.13-.228 3.2395-.5545 4.688-.7257l2.6331-.3111 1.0121-1.3655c.5566-.7509 1.8884-2.4046 2.9596-3.6746l1.9475-2.3093-1.57-1.43949c-4.2792-3.9234-9.0921-6.08034-11.5782-5.18904zm27.808-.09206c-2.3264.45639-6.1558 2.74396-8.9045 5.31944l-1.5023 1.40775 1.9449 2.3059c1.0698 1.2683 2.4002 2.9205 2.9567 3.6714l1.0122 1.3655 2.633.3111c1.4485.1712 3.5581.4977 4.6881.7257 1.13.2281 2.1044.3343 2.1654.2359s.3435-1.5342.6276-3.1908c1.1815-6.88715.0414-11.27159-3.1609-12.15824-1.0176-.2818-.9912-.2818-2.4602.00635zm-34.0925 19.62559c-5.83345 2.0497-9.540674 4.6347-10.307888 7.1875-.923988 3.0743 2.943188 6.6068 9.898788 9.0413 1.1896.4164 2.2468.757 2.3494.757.1029 0 .3222-.4669.4878-1.0378.1655-.5709.9146-2.5647 1.6645-4.431l1.3634-3.3933-.5494-1.2464c-.3023-.6854-1.0615-2.6453-1.6871-4.3551s-1.2476-3.1027-1.3823-3.0953c-.1347.0075-.9615.2654-1.8372.5731zm40.6849.442c-.1656.5709-.9147 2.5647-1.6645 4.431l-1.3635 3.3933.5473 1.2463c.3013.6855 1.0545 2.62 1.6745 4.2988.6198 1.6788 1.1528 3.0909 1.1849 3.1383.0318.0471.6437-.1035 1.3598-.3353 7.7441-2.5051 11.9716-6.1416 10.9945-9.4572-.4578-1.5528-2.7955-3.7144-5.5283-5.1117-1.8962-.9696-6.1477-2.6414-6.717-2.6414-.1029 0-.3221.4669-.4877 1.0379zm-20.4071 1.6316c-2.3519.4686-4.6212 2.8781-4.9845 5.2916-.5497 3.6548 2.5332 7.0469 6.3714 7.0107 3.0618-.0285 5.7007-2.333 6.1588-5.3775.6065-4.0323-3.4375-7.7438-7.5457-6.9248zm-16.2509 18.5993c-.061.0984-.3434 1.5342-.6276 3.1908-1.4479 8.4412.62 13.0764 5.4281 12.1673 2.5368-.4796 6.2222-2.6407 9.0975-5.3349l1.5024-1.4077-1.945-2.3059c-1.0697-1.2683-2.4001-2.9205-2.9567-3.6714l-1.0121-1.3655-2.6331-.3111c-1.4485-.1712-3.558-.4977-4.688-.7257-1.13-.2281-2.1045-.3343-2.1655-.2359zm33.4519.1289c-.741.1741-2.8207.5074-4.6216.7411l-3.2744.4247-1.0036 1.3545c-.5521.745-1.8803 2.3935-2.9515 3.6636l-1.9474 2.3093 1.5699 1.4395c2.9687 2.722 6.6039 4.8362 9.1397 5.316 4.7047.8903 6.7577-3.8267 5.3183-12.2188-.2871-1.6742-.6031-3.112-.702-3.195-.099-.0832-.7864-.0088-1.5274.1651z" fill="#61dafb" fill-rule="evenodd"/></svg>